<?xml version="1.0" standalone="no"?>
<!DOCTYPE svg PUBLIC "-//W3C//DTD SVG 20010904//EN"
 "http://www.w3.org/TR/2001/REC-SVG-20010904/DTD/svg10.dtd">
<svg version="1.0" xmlns="http://www.w3.org/2000/svg"
 width="1280.000000pt" height="887.000000pt" viewBox="0 0 1280.000000 887.000000"
 preserveAspectRatio="xMidYMid meet">
<metadata>
Created by potrace 1.15, written by Peter Selinger 2001-2017
</metadata>
<g transform="translate(0.000000,887.000000) scale(0.100000,-0.100000)"
fill="#000000" stroke="none">
<path d="M6180 8867 c0 -11 70 -113 94 -137 60 -60 76 -91 75 -149 -1 -55 -1
-55 -11 -21 -5 19 -14 44 -18 55 -9 20 -9 20 -9 0 -1 -11 3 -36 9 -55 11 -37
-1 -54 -31 -46 -9 2 -24 -5 -33 -16 -28 -33 -49 -18 -72 50 -12 34 -25 66 -29
70 -11 10 2 -45 27 -106 20 -51 20 -54 3 -92 -28 -62 -39 -66 -66 -25 -26 38
-40 45 -32 17 6 -26 -20 -44 -78 -53 -59 -9 -79 -23 -79 -54 0 -27 -28 -85
-41 -85 -5 0 -9 7 -9 15 0 8 -14 24 -31 34 -17 11 -49 47 -71 81 -21 34 -42
60 -45 56 -3 -3 1 -14 9 -23 9 -10 25 -37 37 -61 12 -24 28 -45 36 -49 8 -3
31 -27 50 -53 28 -38 35 -57 35 -94 0 -58 -16 -52 -26 9 -3 25 -11 45 -16 45
-5 0 -7 -8 -5 -17 3 -10 8 -34 11 -54 l6 -36 -50 -7 c-28 -4 -57 -9 -64 -12
-10 -4 -20 10 -32 50 -10 31 -21 56 -25 56 -7 0 1 -32 22 -90 7 -19 4 -35 -11
-65 -14 -28 -18 -49 -14 -75 7 -40 7 -39 -35 14 -39 48 -39 38 -2 -39 24 -49
27 -62 16 -73 -10 -12 -18 -11 -44 2 -17 9 -31 12 -31 7 0 -5 7 -12 16 -15 13
-5 10 -11 -15 -35 -21 -20 -31 -38 -31 -58 0 -16 -5 -34 -12 -41 -9 -9 -8 -12
5 -12 10 0 22 -12 27 -26 14 -35 66 -110 113 -161 38 -41 38 -42 23 -72 -25
-47 -34 -45 -30 7 2 38 2 41 -4 13 -11 -52 -33 -60 -80 -28 -21 15 -45 40 -53
55 -19 39 -61 93 -66 88 -3 -3 7 -20 21 -39 14 -19 26 -38 26 -44 0 -6 9 -22
20 -36 l20 -25 -57 14 c-32 8 -108 17 -168 20 -119 7 -318 -4 -294 -16 8 -4
135 -33 283 -66 171 -37 270 -63 274 -72 9 -24 -18 -94 -34 -88 -8 3 -14 0
-14 -8 0 -7 -11 -18 -24 -24 -22 -10 -25 -7 -39 26 -9 20 -21 55 -28 77 -8 24
-14 33 -17 23 -2 -9 8 -45 22 -79 26 -64 25 -79 -9 -113 -14 -14 -13 -17 15
-31 34 -18 37 -27 14 -46 -15 -12 -23 -7 -66 41 -28 30 -48 51 -46 45 2 -5 16
-36 31 -68 39 -84 37 -100 -13 -72 -41 24 -54 17 -20 -11 l31 -27 -52 -53
c-35 -35 -48 -54 -37 -54 9 0 27 13 40 29 54 67 114 63 63 -4 -26 -36 -27 -40
-20 -117 5 -65 4 -80 -7 -76 -7 3 -62 20 -123 37 -60 18 -134 47 -164 64 -52
29 -54 29 -48 8 6 -25 -4 -24 -87 15 -50 23 -51 23 -60 4 -5 -11 -14 -20 -20
-20 -21 0 -291 60 -366 80 -69 20 -313 41 -300 27 12 -13 361 -141 480 -176
165 -49 357 -130 363 -152 3 -10 36 -34 75 -53 75 -38 82 -47 100 -146 l9 -45
-38 0 c-23 0 -46 -8 -59 -20 -25 -23 -32 -16 -52 52 -7 24 -16 43 -20 43 -4 0
-6 -6 -3 -12 2 -7 11 -38 21 -68 9 -30 25 -66 35 -79 26 -33 25 -93 -2 -117
-21 -19 -22 -19 -68 34 -26 28 -50 52 -53 52 -3 0 10 -29 29 -65 44 -83 40
-104 -17 -75 -44 22 -55 12 -15 -14 14 -9 25 -20 25 -24 0 -4 -22 -31 -49 -59
-27 -29 -44 -53 -37 -53 7 0 25 14 42 31 46 49 72 55 104 24 27 -26 27 -28 12
-58 -8 -18 -29 -47 -45 -64 -17 -18 -26 -33 -20 -33 14 0 69 63 78 89 9 31 20
26 39 -18 17 -37 17 -40 -2 -77 -11 -22 -23 -58 -27 -81 -6 -41 -8 -42 -53
-49 -26 -4 -87 -2 -137 3 -78 9 -109 7 -235 -13 -80 -12 -179 -27 -220 -33
-61 -9 -100 -23 -207 -77 -124 -62 -164 -91 -110 -80 163 36 310 50 392 39 41
-6 85 -4 140 5 47 8 81 10 83 4 1 -5 8 -16 15 -25 11 -14 20 -15 82 -2 61 11
72 11 87 -2 15 -14 24 -14 87 2 110 27 104 8 -17 -55 -61 -32 -146 -81 -189
-110 -87 -59 -345 -262 -340 -267 2 -2 159 75 348 170 189 96 385 190 434 210
l90 35 31 -51 c17 -29 44 -65 61 -82 16 -16 37 -42 47 -57 17 -26 17 -28 -2
-55 -34 -47 -99 -106 -113 -101 -7 2 -21 26 -30 54 -11 32 -18 41 -18 26 -1
-12 6 -39 14 -59 8 -20 14 -37 13 -38 -2 -1 -56 -31 -120 -66 -64 -35 -116
-65 -114 -67 2 -2 34 6 72 17 37 12 68 20 69 19 25 -32 22 -45 -26 -103 l-49
-60 -78 -3 c-161 -7 -272 -32 -647 -150 l-50 -16 70 -11 70 -11 -195 -13
c-107 -7 -196 -14 -198 -16 -1 -1 35 -5 81 -9 115 -9 236 -40 331 -83 90 -41
185 -53 284 -35 55 10 63 5 34 -21 -12 -11 -36 -17 -65 -17 -59 0 -69 -16 -16
-24 40 -6 41 -7 24 -26 -10 -11 -22 -17 -27 -14 -6 4 -28 6 -50 6 -25 -1 -50
7 -67 19 -15 11 -45 22 -66 25 -22 3 -70 19 -108 36 -48 21 -75 28 -96 23 -20
-4 -42 0 -72 16 -24 12 -62 23 -84 24 -23 2 -60 12 -83 24 -23 11 -59 21 -80
21 -24 0 -58 10 -87 27 -32 18 -66 27 -99 29 -28 1 -73 12 -101 25 -27 12 -70
23 -95 24 -25 1 -57 7 -73 13 -15 7 -44 11 -65 10 -20 0 -57 7 -82 17 -37 14
-51 15 -77 5 -26 -9 -43 -8 -84 4 -29 9 -74 16 -100 16 -69 0 -342 71 -582
152 -115 38 -210 68 -212 66 -8 -7 199 -132 330 -199 72 -36 180 -85 242 -109
73 -28 110 -47 107 -55 -5 -12 61 -45 90 -45 8 0 17 -7 20 -15 6 -18 81 -54
110 -55 10 0 29 -11 41 -24 12 -13 44 -29 76 -36 30 -7 64 -21 77 -30 12 -10
46 -24 75 -31 28 -7 63 -20 77 -30 14 -11 52 -24 85 -31 33 -6 70 -19 82 -29
13 -9 56 -24 95 -34 40 -9 85 -23 100 -31 15 -8 51 -22 80 -31 29 -8 61 -23
70 -33 17 -18 66 -32 163 -46 28 -4 59 -13 70 -22 19 -14 19 -14 -5 -8 -38 9
-186 20 -180 13 8 -8 181 -75 261 -101 l67 -21 -50 -55 -49 -55 -67 4 c-76 5
-222 6 -267 2 -16 -1 -81 1 -142 5 -74 4 -117 3 -125 -4 -9 -7 -29 -7 -59 -2
-25 5 -162 7 -305 5 -142 -2 -288 -3 -324 -2 -169 5 -241 2 -249 -11 -7 -11
-22 -11 -87 -1 -78 11 -188 6 -198 -10 -3 -4 -65 -6 -139 -3 -112 4 -136 2
-149 -11 -13 -13 -40 -16 -154 -15 -98 1 -139 -2 -142 -10 -2 -8 -39 -12 -118
-12 -82 0 -116 -4 -119 -12 -4 -9 -38 -13 -121 -14 -68 0 -118 -5 -122 -11 -4
-6 -56 -14 -115 -18 -79 -5 -110 -11 -114 -21 -4 -11 -31 -14 -119 -14 -86 0
-115 -3 -121 -14 -6 -10 -36 -15 -103 -19 -348 -18 -517 -28 -600 -37 -174
-18 -450 -54 -450 -60 0 -3 145 -7 323 -8 177 -2 374 -8 437 -13 63 -6 230
-16 370 -22 159 -8 254 -16 253 -22 -2 -6 35 -10 97 -9 57 0 100 -4 100 -9 0
-6 39 -8 99 -4 73 4 101 3 104 -6 2 -8 37 -13 103 -15 54 -2 124 -4 154 -5 30
-1 101 2 157 6 90 7 103 6 103 -8 0 -8 1 -15 3 -15 1 0 85 9 187 20 230 24
216 24 199 3 -13 -15 -5 -16 111 -7 69 5 179 7 245 6 66 -2 160 2 210 7 67 8
91 8 96 -1 6 -9 35 -9 126 2 65 7 152 14 193 16 41 1 104 7 140 13 36 6 94 11
130 11 36 0 97 5 135 11 39 5 111 12 162 14 50 2 101 6 112 10 27 8 27 -5 -3
-77 l-24 -58 35 0 c52 0 221 60 367 130 70 34 130 60 132 58 2 -3 -5 -27 -15
-56 -17 -47 -18 -51 -2 -56 10 -3 8 -4 -5 -3 -12 1 -32 -3 -45 -10 -13 -7 -80
-28 -149 -49 -180 -52 -482 -149 -521 -167 -19 -9 -70 -25 -114 -37 -93 -24
-158 -48 -166 -61 -3 -5 -45 -21 -94 -35 -91 -26 -139 -47 -162 -69 -6 -7 -33
-16 -59 -20 -60 -9 -186 -53 -199 -70 -6 -6 -37 -20 -70 -30 -106 -30 -196
-69 -191 -82 3 -7 -8 -14 -27 -19 -84 -18 -277 -86 -277 -97 0 -7 -33 -24 -72
-36 -124 -40 -178 -62 -175 -72 1 -6 -29 -21 -68 -33 -115 -38 -154 -57 -149
-70 3 -8 -6 -15 -24 -19 -61 -12 -222 -80 -222 -93 0 -8 -5 -14 -10 -14 -16 0
-295 -109 -460 -180 -235 -101 -602 -292 -587 -306 2 -2 73 26 158 62 356 151
720 272 886 293 43 6 101 18 128 27 28 8 77 17 111 19 37 2 86 14 125 31 35
15 87 28 115 29 31 2 85 17 140 40 49 20 109 40 134 45 51 8 95 24 192 69 38
18 84 31 106 31 24 0 69 15 121 40 45 22 92 40 104 40 12 0 60 16 107 36 47
20 104 40 127 44 23 5 64 20 90 34 27 13 84 36 128 51 44 14 90 33 102 41 13
8 40 16 60 18 21 2 79 22 129 45 51 22 103 41 118 41 28 0 186 65 305 124 39
20 79 36 90 36 10 0 54 18 97 39 72 36 180 68 191 57 3 -3 -19 -17 -49 -32
-29 -14 -82 -46 -118 -69 -67 -43 -238 -175 -227 -175 3 0 117 55 254 123 136
67 268 129 292 137 42 13 44 13 61 -10 30 -40 32 -91 3 -120 l-24 -25 -40 45
c-21 25 -39 48 -39 53 0 4 -4 7 -10 7 -5 0 6 -32 25 -72 38 -79 35 -99 -13
-74 -47 24 -57 19 -22 -10 36 -30 30 -43 -31 -75 -40 -20 -63 -44 -32 -32 16
6 16 5 4 -10 -22 -27 8 -22 38 7 15 13 37 27 50 31 24 7 24 7 -6 -31 -64 -81
-70 -84 -128 -84 -70 0 -173 -22 -315 -68 -105 -34 -112 -37 -80 -43 24 -3 -2
-8 -80 -14 l-115 -8 87 -13 c48 -7 122 -27 165 -44 69 -28 86 -31 151 -27 l72
4 -17 -21 c-10 -12 -31 -36 -47 -53 -16 -18 -28 -35 -25 -37 3 -3 29 6 58 19
63 30 62 29 54 8 -4 -11 -3 -14 5 -9 18 11 15 1 -13 -40 -15 -22 -23 -45 -20
-55 8 -25 -23 -39 -83 -39 -55 0 -94 -23 -97 -57 0 -11 -20 -42 -44 -69 -58
-66 -86 -116 -120 -215 -16 -46 -32 -93 -37 -103 -7 -18 -4 -19 37 -13 24 3
77 20 118 36 41 17 75 31 77 31 1 0 4 -17 6 -37 l3 -38 39 60 c36 57 45 64
183 139 102 56 148 87 154 104 13 34 81 95 90 81 12 -21 37 -1 63 49 22 43 28
49 50 45 20 -4 28 2 48 36 15 27 28 39 38 35 9 -3 25 7 41 27 l26 32 10 -111
c7 -82 14 -117 27 -131 17 -19 18 -18 52 17 l35 37 -32 -65 c-31 -62 -33 -70
-32 -175 0 -97 5 -124 37 -229 20 -66 37 -121 39 -122 1 -1 43 70 92 159 l90
162 2 101 c1 65 7 113 17 135 8 19 20 59 26 89 13 70 34 104 26 42 -12 -80 22
-155 84 -187 56 -28 68 -28 84 4 9 17 16 50 16 75 l0 44 68 4 c37 2 71 0 76
-4 5 -4 -10 -29 -35 -55 -25 -26 -55 -65 -67 -85 -26 -42 -104 -250 -96 -257
8 -8 107 21 179 53 39 17 132 63 208 103 75 40 141 73 145 73 5 0 19 -12 33
-28 l25 -27 -7 -620 c-4 -341 -9 -819 -11 -1062 l-4 -443 138 0 c76 0 138 1
138 3 0 1 -7 37 -15 80 -48 249 -65 564 -72 1271 l-6 628 42 -30 c23 -17 73
-40 111 -51 38 -12 76 -24 84 -27 12 -5 11 7 -6 63 -28 95 -49 132 -139 249
-70 90 -79 107 -79 144 0 59 24 100 58 100 23 0 33 8 52 42 13 23 25 37 28 30
6 -20 20 -13 45 23 l24 36 7 -32 c3 -17 6 -59 7 -93 1 -65 6 -89 27 -121 12
-19 14 -18 47 19 19 22 35 36 35 32 0 -3 -14 -35 -32 -69 -29 -57 -31 -69 -31
-162 0 -86 6 -118 38 -225 20 -69 38 -126 40 -128 8 -8 175 308 184 348 12 52
13 126 2 155 -5 13 -2 28 10 45 10 14 23 52 29 85 18 91 29 100 30 25 0 -36 6
-76 13 -89 17 -34 76 -79 113 -87 28 -5 32 -3 45 28 7 18 14 51 14 73 l0 39
45 -3 c70 -4 100 12 100 51 0 18 -11 51 -25 73 -26 43 -30 55 -16 55 5 0 11
-9 14 -20 3 -12 14 -20 26 -20 14 0 25 -9 31 -24 5 -14 19 -26 32 -28 15 -2
24 -11 26 -26 4 -29 24 -37 51 -22 20 10 21 8 21 -30 0 -35 3 -40 24 -40 19 0
28 -10 46 -55 12 -30 25 -55 28 -55 2 0 10 8 17 17 12 16 18 12 61 -36 42 -47
49 -51 60 -37 10 15 19 6 68 -63 75 -107 136 -154 240 -186 45 -14 85 -25 88
-25 9 0 -26 119 -47 161 -9 19 -35 58 -56 86 -22 29 -53 90 -69 135 -16 46
-45 118 -65 161 -19 43 -33 82 -31 86 3 4 -6 26 -19 49 -13 23 -19 42 -14 42
6 0 -1 21 -15 46 l-26 47 96 -7 c85 -7 268 -35 582 -91 52 -9 95 -15 98 -13 4
5 -391 114 -511 142 -48 12 -99 34 -161 72 l-92 55 6 66 c4 54 2 67 -12 75 -9
5 -16 15 -16 22 0 8 -15 27 -34 44 -34 30 -34 31 -15 48 10 9 19 23 19 31 0 7
5 13 10 13 6 0 10 9 10 19 0 10 7 21 15 25 8 3 15 16 15 28 0 22 -1 22 -25 -6
-14 -16 -25 -34 -25 -40 0 -6 -11 7 -23 29 -21 35 -22 43 -10 61 11 17 26 23
76 26 56 4 69 1 141 -34 44 -21 87 -38 96 -38 10 0 73 -26 141 -59 142 -67
237 -104 249 -96 4 3 54 -16 110 -41 57 -25 117 -47 134 -49 28 -3 64 -16 241
-87 28 -12 77 -30 110 -41 33 -11 97 -36 143 -54 45 -19 99 -37 120 -40 20 -4
73 -24 117 -45 52 -25 92 -38 115 -37 22 1 64 -11 111 -33 90 -42 131 -56 181
-62 20 -3 54 -14 75 -24 66 -33 163 -62 201 -61 21 1 65 -10 102 -26 37 -16
97 -31 140 -36 41 -5 104 -18 139 -29 36 -11 71 -18 79 -15 17 6 222 -45 382
-97 128 -41 422 -155 588 -226 50 -22 92 -37 92 -34 0 11 -162 103 -305 175
-161 80 -366 169 -582 253 -91 35 -171 71 -177 79 -6 9 -67 36 -136 60 -69 24
-119 44 -112 44 37 2 -1 23 -102 56 -70 23 -113 42 -110 49 3 7 -42 27 -117
51 -70 23 -124 47 -130 56 -7 15 -93 46 -254 92 -27 8 -49 19 -48 25 3 12 -65
41 -167 73 -41 13 -86 31 -99 41 -25 19 -149 61 -215 73 -21 4 -47 16 -57 26
-10 10 -64 32 -121 50 -57 18 -110 38 -118 44 -20 17 -112 49 -180 65 -30 6
-73 20 -95 30 -32 14 -329 111 -442 145 -14 4 -30 23 -43 51 -10 25 -33 66
-50 90 l-30 45 57 -7 c32 -4 67 -7 78 -7 11 0 86 -10 168 -23 81 -13 154 -21
162 -18 8 3 71 -2 140 -11 69 -9 136 -14 149 -11 12 3 60 -1 105 -9 45 -8 115
-14 154 -14 40 0 84 -2 97 -5 64 -15 204 -25 216 -15 8 7 61 6 164 -3 106 -8
156 -9 168 -2 12 8 60 7 164 -4 81 -8 155 -11 165 -7 12 5 14 9 6 12 -45 17
12 16 185 -2 176 -18 197 -19 200 -5 2 13 15 14 90 8 102 -9 412 1 428 13 6 5
96 11 200 13 104 3 194 5 201 5 7 1 10 7 8 14 -4 9 23 11 120 8 78 -2 125 1
125 7 0 6 65 12 158 15 86 4 236 11 332 16 96 5 283 10 414 10 132 1 237 3
235 5 -4 5 -242 37 -409 57 -52 6 -185 14 -295 19 -238 10 -448 29 -456 42 -3
5 -57 12 -120 15 -63 3 -120 10 -126 15 -7 6 -60 13 -118 16 -79 4 -105 8
-105 18 0 11 -25 14 -118 14 -68 0 -122 4 -128 10 -6 6 -60 12 -120 13 -77 1
-113 6 -124 16 -11 11 -41 13 -143 8 -107 -4 -129 -2 -134 10 -5 12 -31 14
-149 12 -102 -2 -148 1 -156 9 -15 15 -165 16 -227 1 -37 -8 -46 -7 -53 5 -7
13 -53 15 -311 17 -166 1 -340 2 -387 2 -47 1 -121 0 -165 -1 -44 -1 -109 -1
-145 0 -36 0 -155 -2 -265 -5 -110 -3 -222 -5 -250 -4 -78 3 -171 -1 -279 -10
l-98 -9 -36 46 c-20 25 -40 50 -45 57 -10 14 17 22 170 54 54 11 111 26 128
34 16 7 54 16 84 20 30 3 78 17 106 31 29 13 63 24 76 24 45 0 143 28 155 44
6 9 42 25 80 37 38 12 74 25 79 29 6 5 42 16 80 26 39 9 90 27 115 40 25 12
64 25 87 29 23 4 53 15 65 24 13 10 56 28 96 40 39 12 72 25 72 30 0 5 24 15
53 21 60 15 89 28 100 46 4 7 22 16 40 19 41 9 83 31 108 56 10 10 26 19 34
19 27 0 75 29 70 43 -3 8 24 22 77 41 118 40 323 140 463 225 66 40 126 79
134 86 8 8 -89 -20 -215 -61 -252 -83 -541 -158 -576 -149 -13 3 -52 -3 -87
-14 -45 -14 -70 -17 -82 -10 -26 14 -65 11 -107 -7 -20 -9 -57 -16 -82 -15
-26 1 -54 -4 -65 -13 -12 -8 -31 -12 -47 -9 -31 6 -121 -21 -138 -42 -9 -11
-17 -12 -31 -4 -23 12 -83 -2 -144 -34 -22 -11 -59 -21 -82 -22 -23 -2 -58
-12 -78 -24 -20 -11 -52 -21 -71 -21 -20 0 -57 -9 -84 -21 -41 -17 -54 -19
-86 -9 -22 6 -80 17 -130 25 -109 17 -179 42 -265 95 -35 22 -117 69 -182 106
-78 44 -122 75 -131 92 -8 15 -21 73 -30 130 -9 56 -25 128 -36 159 -11 31
-18 59 -15 61 5 5 6 1 56 -135 18 -50 36 -90 40 -88 4 3 10 34 14 71 5 52 4
69 -8 82 -9 9 -32 34 -52 56 -28 29 -34 41 -25 50 8 8 13 7 20 -4 5 -8 15 -24
23 -35 15 -19 16 -19 28 9 11 23 11 35 -3 72 -8 24 -12 45 -8 46 4 2 10 17 14
33 l7 30 -19 -24 -19 -23 -23 36 -22 37 23 25 c17 19 33 24 68 24 110 0 340
35 516 78 l110 27 -130 6 c-83 3 -139 2 -155 -5 -24 -11 -446 -13 -456 -3 -13
12 12 36 43 42 l35 6 -7 45 c-3 24 -4 44 -1 44 3 0 26 -27 50 -61 l45 -61 6
36 c4 20 5 46 2 59 -3 12 -8 32 -11 45 -7 31 -15 42 -32 42 -20 0 -17 16 8 40
22 20 15 27 -12 10 -27 -17 -28 12 -1 56 29 49 36 50 65 11 19 -26 19 -27 1
-47 -21 -23 -10 -27 15 -5 16 14 20 6 60 -101 46 -125 56 -130 61 -32 2 43 -2
62 -14 76 -9 10 -17 23 -17 28 0 5 -13 21 -30 36 -29 25 -29 26 -10 43 11 10
22 33 26 51 3 19 12 34 20 34 8 0 14 6 14 14 0 8 3 23 6 33 4 11 -4 6 -20 -12
-14 -16 -25 -33 -26 -38 0 -11 -52 -87 -59 -87 -4 0 -14 19 -23 43 l-16 43 59
80 c33 43 71 89 85 102 36 32 24 37 -25 11 -48 -25 -34 -32 -169 91 l-94 85 5
51 c3 28 16 83 30 122 14 40 23 72 20 72 -3 0 -26 -16 -49 -36 -30 -24 -44
-43 -44 -59 0 -27 -17 -42 -32 -27 -11 11 56 110 94 136 12 9 19 19 15 23 -4
3 -21 -3 -37 -15 -16 -12 -36 -22 -45 -22 -9 0 -15 -9 -15 -24 0 -14 -5 -28
-11 -31 -5 -4 -15 -19 -21 -33 -9 -22 -12 -24 -15 -9 -3 9 -11 17 -18 17 -19
0 -43 47 -43 82 0 15 -21 72 -48 125 -27 53 -50 100 -52 103 -1 4 28 19 65 33
102 40 204 102 391 235 92 65 178 124 190 131 13 7 22 15 19 17 -2 2 -109 -44
-238 -102 -280 -127 -379 -158 -379 -120 0 8 -16 28 -35 45 l-35 30 25 37 c14
20 25 45 25 55 0 11 6 19 14 19 7 0 16 11 19 25 7 38 -12 26 -40 -25 -14 -25
-32 -54 -40 -65 -14 -18 -15 -18 -9 -2 4 11 -2 30 -14 47 -11 15 -20 31 -20
34 0 13 102 146 127 166 38 30 23 34 -30 8 -34 -17 -47 -29 -47 -44 0 -12 -7
-27 -15 -34 -8 -7 -15 -20 -15 -29 0 -9 -9 -22 -19 -28 -15 -10 -22 -9 -35 6
-25 28 -41 80 -27 94 16 16 13 31 -4 17 -12 -10 -16 -10 -20 1 -32 94 -49 131
-61 136 -8 3 -14 11 -14 18 0 13 41 24 94 26 25 0 20 4 -29 18 -76 22 -81 39
-43 145 16 43 27 82 26 87 -5 14 -88 -62 -88 -81 0 -10 -7 -25 -15 -34 -8 -8
-15 -28 -15 -45 0 -27 -2 -30 -22 -22 -20 8 -23 14 -20 60 2 32 -1 51 -7 51
-6 0 -11 -13 -11 -29 l0 -29 -39 37 c-66 61 -79 91 -73 170 4 68 4 69 -23 78
-49 16 -91 173 -46 173 5 0 11 11 13 25 7 34 -7 32 -28 -4 -22 -37 -36 -31
-21 8 8 22 8 36 -1 55 -10 23 -7 29 34 75 47 52 47 67 1 31 -14 -11 -32 -20
-40 -20 -9 0 -17 -5 -19 -11 -2 -6 -26 22 -52 61 -49 71 -50 72 -86 66 -52 -8
-69 15 -71 101 -1 52 5 85 25 137 14 38 24 71 21 74 -11 12 -80 -56 -87 -86
-5 -18 -13 -32 -18 -32 -6 0 -10 -29 -10 -65 l0 -65 -25 12 c-32 14 -41 49
-26 99 7 24 8 45 3 55 -7 12 -10 6 -15 -26 -3 -24 -12 -49 -20 -57 -13 -13
-16 -13 -22 6 -3 11 -20 29 -36 38 -16 10 -43 40 -58 68 -25 45 -61 87 -61 72z
m320 -282 c0 -36 -4 -65 -8 -65 -12 0 -32 47 -27 62 31 87 35 88 35 3z m-89
-36 c9 -18 9 -19 -10 -7 -12 7 -21 19 -21 26 0 17 17 7 31 -19z m-291 -201 c0
-5 -7 -8 -15 -8 -17 0 -18 2 -9 25 5 13 8 14 15 3 5 -7 9 -16 9 -20z m-154
-141 c25 -61 22 -73 -12 -51 -19 13 -24 25 -24 60 0 24 3 44 8 44 4 0 17 -24
28 -53z m-18 -128 c-18 -11 -30 4 -22 26 7 17 8 17 21 -1 10 -14 10 -19 1 -25z
m1129 -481 c-3 -22 -4 -21 -16 6 -9 23 -9 31 1 37 15 10 21 -9 15 -43z m33
-31 c0 -31 -3 -38 -10 -27 -13 20 -13 83 0 75 6 -3 10 -25 10 -48z m55 -115
c-8 -8 -25 17 -25 38 0 9 6 6 16 -8 9 -13 13 -26 9 -30z m129 -310 c-1 -2 -12
-1 -23 3 -23 7 -27 25 -9 43 9 9 15 6 24 -16 6 -15 10 -29 8 -30z m-2074
-1252 c0 -5 -2 -10 -4 -10 -3 0 -8 5 -11 10 -3 6 -1 10 4 10 6 0 11 -4 11 -10z
m474 -338 c-6 -4 -13 -15 -17 -24 -8 -22 -21 -23 -37 -3 -10 12 -10 16 1 19 8
2 21 7 29 9 23 8 36 8 24 -1z m-66 -37 c6 -14 9 -32 6 -40 -4 -10 0 -15 10
-15 18 0 21 -17 7 -39 -8 -12 -14 -13 -36 -3 -40 18 -41 15 -9 -20 18 -19 23
-29 12 -25 -12 4 -18 -1 -23 -23 -3 -15 -14 -35 -24 -44 -16 -14 -20 -12 -62
27 -41 40 -106 134 -98 142 4 3 189 63 200 64 3 1 11 -10 17 -24z m1915 -79
c23 -29 24 -36 12 -52 -13 -18 -15 -17 -29 18 -15 35 -21 68 -12 68 2 0 15
-15 29 -34z m-2173 -415 c0 -5 -7 -14 -16 -22 -13 -10 -17 -10 -24 2 -7 10 -4
16 8 21 24 9 32 9 32 -1z m2675 -387 c134 -17 185 -34 103 -34 -31 0 -56 -7
-81 -24 -20 -14 -44 -22 -55 -19 -29 7 -98 -15 -130 -42 -16 -13 -50 -29 -76
-35 -26 -6 -64 -17 -83 -25 -34 -14 -35 -14 -30 5 3 12 0 20 -7 20 -18 0 -37
69 -26 90 5 9 21 25 35 34 14 9 23 21 20 27 -4 5 -19 1 -36 -11 -16 -12 -33
-18 -39 -15 -16 10 -11 43 8 49 31 9 264 -2 397 -20z m-2857 -143 c20 -12 42
-60 31 -66 -8 -6 -148 23 -159 32 -3 3 6 13 20 23 26 20 85 26 108 11z m52
-32 c0 -6 -4 -7 -10 -4 -5 3 -10 11 -10 16 0 6 5 7 10 4 6 -3 10 -11 10 -16z
m-158 -73 c19 -4 34 -19 48 -46 18 -36 19 -40 3 -48 -11 -7 -29 -4 -57 8 -23
10 -59 22 -81 25 -22 4 -48 14 -58 23 -16 14 -15 17 20 37 28 16 46 19 68 14
17 -4 42 -10 57 -13z m88 -26 c0 -5 -4 -10 -9 -10 -6 0 -13 5 -16 10 -3 6 1
10 9 10 9 0 16 -4 16 -10z m-535 -310 l20 -9 -20 1 c-11 0 -31 4 -45 8 l-25 8
25 0 c14 0 34 -3 45 -8z m3280 -640 c3 -5 2 -10 -4 -10 -5 0 -13 5 -16 10 -3
6 -2 10 4 10 5 0 13 -4 16 -10z m-1245 -145 c10 -30 9 -40 -5 -61 -21 -32 -31
-23 -38 38 -6 44 -2 54 25 57 3 1 12 -15 18 -34z m-1475 -32 c-4 -10 -7 -29
-7 -43 1 -24 1 -24 -13 -6 -23 30 -19 66 6 66 16 0 19 -4 14 -17z m2700 -19
c24 -32 26 -38 13 -51 -14 -13 -17 -10 -32 26 -28 70 -22 78 19 25z m-2739
-45 c12 -14 11 -18 -9 -37 -26 -25 -37 -20 -37 15 0 13 -7 35 -16 48 -17 26
-17 25 26 38 10 2 16 -5 18 -22 2 -14 10 -33 18 -42z m1234 -23 c0 -6 -7 -2
-15 8 -8 11 -15 25 -15 30 0 6 7 2 15 -8 8 -11 15 -25 15 -30z m255 15 c3 -5
1 -12 -5 -16 -5 -3 -10 1 -10 9 0 18 6 21 15 7z m1298 -148 c19 -51 32 -93 28
-93 -25 0 -42 33 -56 105 -22 117 -20 116 28 -12z m-1896 -523 c16 0 23 -6 23
-20 0 -13 11 -24 30 -32 l30 -13 -40 -22 -40 -21 0 21 c0 12 -11 42 -25 66
-14 23 -25 48 -24 55 0 6 5 1 11 -11 7 -14 20 -23 35 -23z"/>
</g>
</svg>
